<svg xmlns="http://www.w3.org/2000/svg" version="1.1" xmlnsXlink="http://www.w3.org/1999/xlink" xmlnssvgjs="http://svgjs.dev/svgjs" width="2000" height="1202" viewBox="0 0 2000 1202"><g transform="matrix(1,0,0,1,-1.2121212121212466,0.17350385831730364)"><svg viewBox="0 0 396 238" data-background-color="#e83d95" preserveAspectRatio="xMidYMid meet" height="1202" width="2000" xmlns="http://www.w3.org/2000/svg" xmlnsXlink="http://www.w3.org/1999/xlink"><g id="tight-bounds" transform="matrix(1,0,0,1,0.2400000000000091,-0.034353566509665256)"><svg viewBox="0 0 395.52 238.06870790784038" height="238.06870790784038" width="395.52"><g><svg viewBox="0 0 397.4975999999999 239.25905144737953" height="238.06870790784038" width="395.52"><g><rect width="397.4975999999999" height="7.328188741003053" x="0" y="131.48625672510883" fill="#ffffff" opacity="1" stroke-width="0" stroke="transparent" fill-opacity="1" class="rect-o-0" data-fill-palette-color="secondary" rx="1%" id="o-0" data-palette-color="#ffffff"></rect></g><g transform="matrix(1,0,0,1,0.9887999999999693,157.99818562580575)"><svg viewBox="0 0 395.52 81.26086582157379" height="81.26086582157379" width="395.52"><g id="textblocktransform"><svg viewBox="0 0 395.52 81.26086582157379" height="81.26086582157379" width="395.52" id="textblock"><g><svg viewBox="0 0 395.52 81.26086582157379" height="81.26086582157379" width="395.52"><g transform="matrix(1,0,0,1,0,0)"><svg width="395.52" viewBox="2.200000047683716 -38.20000076293945 209.02000427246094 42.95000076293945" height="81.26086582157379" data-palette-color="#ffffff"><path d="M9.9 0.8Q8.5 0.8 7.33 0.15 6.15-0.5 5.3-1.6L5.3-1.6Q4.55-2.65 3.95-4.28 3.35-5.9 3.05-7.65L3.05-7.65Q2.45-10.6 2.25-15.4L2.25-15.4Q2.2-16.55 2.2-19.35L2.2-19.35 2.2-22.5Q2.25-23.85 2.25-25.3L2.25-25.3Q2.25-28.25 2.6-29.95L2.6-29.95Q2.45-30.7 2.45-31.5L2.45-31.5Q2.45-34.5 4.7-36.35 6.95-38.2 10.4-38.2L10.4-38.2Q11.7-38.2 12.8-37.5 13.9-36.8 13.9-35.75L13.9-35.75Q13.9-35.25 13.5-34.95 13.1-34.65 12.5-34.65L12.5-34.65Q12-34.65 11.43-34.8 10.85-34.95 10.7-35.25L10.7-35.25 10.05-35.25 10.05-35.35Q8.2-35.35 6.95-34.55L6.95-34.55Q6.05-33.9 5.55-32.4L5.55-32.4Q5.35-31.85 5.25-31 5.15-30.15 5.15-29.45L5.15-29.45Q5.1-29.05 5.1-27.85L5.1-27.85 5.2-26.1 5.25-24.4Q5.25-23.65 5.05-22.65L5.05-22.65Q4.8-21.4 4.8-20.9L4.8-20.9 4.8-19.7Q4.8-17.75 4.95-14.35L4.95-14.35Q5-11.5 5.6-8.65L5.6-8.65Q6.05-6 7.3-4.15L7.3-4.15Q8.5-2.25 10.55-2.25L10.55-2.25Q11.4-2.25 12.65-3.15L12.65-3.15Q14-4.05 14.55-4.05L14.55-4.05Q15.25-4.05 16-3.3L16-3.3Q16-1.45 14.6-0.45L14.6-0.45Q13.3 0.45 11.5 0.7L11.5 0.7Q10.5 0.8 9.9 0.8L9.9 0.8ZM29.75 0.45Q28.6 0.45 28.05 0.1 27.5-0.25 27.5-1.2L27.5-1.2Q27.5-2.7 27-6.3L27-6.3 26.8-7.35 21.85-8.1Q21.55-6.95 21-3.45L21-3.45Q20.7-1 20.05-0.2L20.05-0.2Q19.7 0.25 19.05 0.25L19.05 0.25Q18.45 0.25 17.95-0.13 17.45-0.5 17.45-1.05L17.45-1.05 17.55-1.3 17.6-1.5Q20.9-14.35 22.6-26.85L22.6-26.85Q22.6-27.05 22.65-27.53 22.7-28 22.75-28.9L22.75-28.9Q22.9-30.75 23.07-31.85 23.25-32.95 23.65-33.5L23.65-33.5 25.35-33.5Q26.05-33.5 26.55-33.18 27.05-32.85 27.05-32.25L27.05-32.25Q27.05-28.45 28.1-20.95L28.1-20.95Q29.1-13.25 29.1-10.15L29.1-10.15Q29.1-9.85 29.35-8.6L29.35-8.6Q29.6-7.45 29.6-7.1L29.6-7.1Q29.6-6.75 30.1-4.1L30.1-4.1Q30.55-1.7 30.55-1L30.55-1 30.55-0.95Q30.55 0.15 29.75 0.45L29.75 0.45ZM26.45-9.15Q26.3-9.9 26.3-11L26.3-11Q26.3-15.5 25.5-22.5L25.5-22.5 25-27.7Q22.85-15.95 22.05-9.95L22.05-9.95Q22.8-9.45 26.45-9.15L26.45-9.15ZM48.49 0.15Q47.89 0.15 47.59-0.18 47.3-0.5 47.14-1.3L47.14-1.3 46.84-2.25 46.84-2.35 46.84-2.5Q46.84-4.15 43.42-13.75 39.99-23.35 38.05-27.95L38.05-27.95 38.05-2.8 38.24-2.45Q38.3-2.35 38.45-2.1 38.59-1.85 38.59-1.6L38.59-1.6Q38.59-0.95 38.14-0.5 37.7-0.05 37.05-0.05L37.05-0.05Q35.45-0.05 35.45-3.1L35.45-3.1 35.39-11.65Q35.34-15.5 35.34-20.25L35.34-20.25Q35.34-21.85 35.49-24.9L35.49-24.9Q35.64-28.05 35.64-29.55L35.64-29.55Q35.64-31.9 37.45-33.25L37.45-33.25 37.45-32.95Q37.74-33.05 37.84-33.05L37.84-33.05Q38.99-33.05 40.74-29.05L40.74-29.05Q42.14-25.85 43.27-22.3 44.39-18.75 46.24-12.2L46.24-12.2 46.74-10.4Q47.89-6.35 48.49-4.6L48.49-4.6Q49.49-15.35 49.49-30L49.49-30 49.49-30.65Q49.45-30.95 49.45-31.3L49.45-31.3Q49.45-32.8 50.64-32.8L50.64-32.8Q51.34-32.8 51.72-32.25 52.09-31.7 52.09-30.85L52.09-30.85 52.09-27.1Q52-19.4 51.5-10.4 51-1.4 50.3-0.25L50.3-0.25Q48.84 0.15 48.49 0.15L48.49 0.15ZM60.39 0.3Q59.09 0.3 59.09-6.25L59.09-6.25 59.19-14.15Q59.24-17.65 59.24-22L59.24-22Q59.24-23.6 58.94-26.95L58.94-26.95Q58.69-30.6 58.69-31.4L58.69-31.4Q58.69-32.05 59.24-32.55 59.79-33.05 60.44-33.05L60.44-33.05Q62.19-33.05 63.82-32.27 65.44-31.5 66.69-30.1L66.69-30.1Q69.34-27.05 70.19-23.4L70.19-23.4Q70.64-21.55 70.64-19.75L70.64-19.75Q70.64-19.1 70.59-18.55L70.59-18.55 70.54-17.2 70.54-14.45Q70.54-11.25 70.34-9.4L70.34-9.4Q70.04-6.9 69.19-4.95L69.19-4.95Q68.19-2.85 66.29-1.2L66.29-1.2Q65.39-0.45 63.99 0.3L63.99 0.3 60.39 0.3ZM62.59-2.25Q63.59-2.25 64.44-2.78 65.29-3.3 65.89-4.2L65.89-4.2Q66.39-5 66.82-6.23 67.24-7.45 67.44-8.6L67.44-8.6Q67.89-10.85 67.99-13.2L67.99-13.2Q68.04-13.8 68.04-14.95L68.04-14.95Q68.04-30.05 62.19-30.7L62.19-30.7Q61.84-28.45 61.84-25.5L61.84-25.5Q61.84-22.35 62.24-14.5L62.24-14.5Q62.59-7.55 62.59-3.45L62.59-3.45 62.59-2.25ZM83.79 0.8Q81.99 0.2 79.34 0.2L79.34 0.2Q78.54 0.7 77.64 0.7L77.64 0.7Q77.04 0.7 76.62 0.18 76.19-0.35 76.19-0.95L76.19-0.95Q76.19-5.15 76.54-12.15L76.54-12.15Q76.84-19.6 76.84-23.3L76.84-23.3 76.84-23.65Q76.54-26.8 76.54-28.35L76.54-28.35Q76.54-33.1 78.29-33.1L78.29-33.1Q78.79-33.1 79.17-32.73 79.54-32.35 79.54-31.85L79.54-31.85Q79.54-31.25 79.39-29.95L79.39-29.95Q79.24-28.7 79.24-28.05L79.24-28.05Q79.24-24.7 79.29-22L79.29-22Q79.34-19.35 79.34-16L79.34-16Q79.09-15.25 79.09-13.9L79.09-13.9 79.09-13.3 78.99-9.35Q78.89-7.6 78.89-5.35L78.89-5.35Q78.89-1.9 80.54-1.9L80.54-1.9Q80.64-1.9 80.87-1.93 81.09-1.95 81.49-1.95L81.49-1.95Q81.94-2 82.64-2L82.64-2Q85.34-2 85.34-0.5L85.34-0.5Q85.34 0 84.89 0.35 84.44 0.7 83.79 0.8L83.79 0.8ZM91.79 0.65Q91.14 0.65 90.61 0.2 90.09-0.25 90.04-0.9L90.04-0.9 90.04-2.2 90.04-3.2Q89.99-3.65 89.99-4.25L89.99-4.25Q89.99-5.3 89.84-7.45L89.84-7.45 89.74-10.65Q89.74-13.1 89.89-17.95L89.89-17.95Q90.09-22.3 90.09-25.25L90.09-25.25Q90.09-25.95 89.94-27.35L89.94-27.35Q89.79-28.8 89.79-29.45L89.79-29.45Q89.79-33 91.89-33L91.89-33Q93.54-33 95.71-32.35 97.89-31.7 97.89-30.8L97.89-30.8Q97.89-30.3 97.46-29.88 97.04-29.45 96.44-29.2L96.44-29.2Q94.34-29.95 92.64-30.2L92.64-30.2Q92.69-29.45 92.69-28.05L92.69-28.05Q92.69-26.05 92.64-24.45L92.64-24.45Q92.49-22.05 92.49-20.85L92.49-20.85 92.64-20.05 93.44-20.1Q93.84-20.15 94.44-20.15L94.44-20.15Q96.84-20.15 96.84-18.75L96.84-18.75Q96.84-18.2 96.39-17.82 95.94-17.45 95.24-17.45L95.24-17.45Q94.34-17.45 93.84-17.55L93.84-17.55 92.59-17.55Q92.69-16.25 92.69-13.75L92.69-13.75Q92.69-11.25 92.64-9.25L92.64-9.25Q92.49-6.2 92.49-4.7L92.49-4.7Q92.49-1.9 92.59-1.9L92.59-1.9 94.24-1.95Q95.09-2 96.29-2L96.29-2Q98.19-2 98.19-0.8L98.19-0.8Q98.19-0.1 97.56 0.28 96.94 0.65 96.04 0.65L96.04 0.65 91.79 0.65ZM104.59 0.7Q103.69 0.55 103.06 0.05 102.44-0.45 102.34-1.25L102.34-1.25 102.89-2.1Q103.19-2.1 103.84-1.9L103.84-1.9Q104.59-1.75 104.99-1.75L104.99-1.75Q105.89-1.75 106.61-2.55 107.34-3.35 107.69-4.65L107.69-4.65Q108.34-7.05 108.34-8.95L108.34-8.95Q108.34-12.25 106.24-15.9L106.24-15.9 105.69-16.85Q104.74-18.5 104.09-19.8 103.44-21.1 102.99-22.6L102.99-22.6Q102.39-24.55 102.39-26.5L102.39-26.5Q102.39-28.7 103.39-31.1L103.39-31.1Q103.89-32.25 104.81-32.98 105.74-33.7 106.89-33.7L106.89-33.7Q107.79-33.7 108.56-33.13 109.34-32.55 109.34-31.75L109.34-31.75Q109.34-31.3 108.99-31.05 108.64-30.8 108.14-30.8L108.14-30.8Q107.59-30.8 107.09-31.1L107.09-31.1Q105.99-31.05 105.34-29.15L105.34-29.15Q104.79-27.4 104.79-26.25L104.79-26.25Q104.79-24.8 105.24-23.33 105.69-21.85 106.39-20.65L106.39-20.65 107.49-18.65 109.24-15.35Q109.94-13.95 110.36-12.1 110.79-10.25 110.79-8.35L110.79-8.35Q110.79-5.3 109.39-2.55L109.39-2.55Q108.69-1.15 107.41-0.3 106.14 0.55 104.59 0.55L104.59 0.55 104.59 0.7ZM127.48 0.4Q125.18 0.4 125.18-0.85L125.18-0.85 125.28-7 125.38-13.15Q125.38-16.5 125.23-23.3L125.23-23.3Q125.08-30.05 125.08-33.45L125.08-33.45 125.08-33.75Q125.08-35.05 125.33-36.15L125.33-36.15Q125.63-37.5 126.93-37.5L126.93-37.5Q130.43-37.5 132.48-35.25 134.53-33 134.53-29.3L134.53-29.3Q134.53-27.05 133.33-24.6 132.13-22.15 130.48-20.95L130.48-20.95Q133.38-19 134.76-15.93 136.13-12.85 136.13-9.15L136.13-9.15Q136.13-7.4 134.93-4.8L134.93-4.8Q133.48-1.7 130.98-0.35L130.98-0.35Q129.48 0.4 127.68 0.4L127.68 0.4 127.48 0.4ZM127.98-21.7Q129.28-22 130.18-23.85L130.18-23.85Q130.93-25.25 131.58-27.25L131.58-27.25Q131.73-27.8 132.08-28.65L132.08-28.65 132.08-30.4Q132.08-31.9 130.98-33.3 129.88-34.7 128.48-34.7L128.48-34.7Q127.78-34.7 127.78-33.15L127.78-33.15Q127.78-29.85 127.88-27.25L127.88-27.25 127.98-21.7ZM128.18-2.2Q130.63-2.55 132.08-4.45 133.53-6.35 133.53-9L133.53-9Q133.53-11.3 133.16-13.23 132.78-15.15 132.18-16.15L132.18-16.15Q131.63-17.1 131.08-17.75 130.53-18.4 130.13-18.6L130.13-18.6 129.73-18.75 127.93-18.75Q128.18-13 128.18-2.2L128.18-2.2ZM144.98 0.7Q144.13 0.7 143.58-0.4L143.58-0.4Q144.13-1.45 144.13-8.9L144.13-8.9Q144.13-10.65 143.88-12.7L143.88-12.7 143.73-14.15Q143.58-15.5 143.58-16.2L143.58-16.2 143.58-17.5Q143.08-18.75 141.75-22.15 140.43-25.55 139.63-27.85L139.63-27.85Q138.68-30.5 138.68-31.45L138.68-31.45 138.68-31.7 139.83-32.55Q140.68-32.45 141.63-30.35L141.63-30.35Q142.43-28.5 143.4-25.05 144.38-21.6 144.38-21.4L144.38-21.4Q144.58-21.95 145.18-25.15L145.18-25.15Q145.78-28.35 146.53-30.8L146.53-30.8Q147.38-33.25 148.28-33.25L148.28-33.25Q148.78-33.25 149.15-32.95 149.53-32.65 149.53-32.2L149.53-32.2Q149.53-29.65 148.13-25L148.13-25Q146.63-19.95 146.63-17.7L146.63-17.7 146.63-2.65Q146.63 0.7 144.98 0.7L144.98 0.7ZM164.67 4.75Q163.87 4.75 163.37 4.35 162.87 3.95 162.87 3.2L162.87 3.2Q162.87 2.65 163.47 2.05 164.07 1.45 164.82 1.15L164.82 1.15Q165.57 0.2 166.2-1.8 166.82-3.8 166.82-5.9L166.82-5.9 166.87-8.35Q166.92-9.4 166.92-10.75L166.92-10.75 166.87-12.8 166.62-17.85Q166.27-27.75 165.52-35.3L165.52-35.3Q165.37-35.2 164.87-35.15L164.87-35.15Q164.07-34.9 163.37-34.9L163.37-34.9Q162.87-34.9 162.5-35.27 162.12-35.65 162.12-36.15L162.12-36.15Q162.12-37.9 168.07-37.9L168.07-37.9 168.72-37.9Q169.42-37.9 169.82-37.83 170.22-37.75 170.57-37.45L170.57-37.45Q170.97-37.15 170.97-36.55L170.97-36.55Q170.97-35.25 168.87-35.25L168.87-35.25Q168.87-35.25 168.85-35.25 168.82-35.25 168.82-35.3L168.82-35.3 168.72-35.3 168.07-35.3 168.07-34.9Q168.07-33.6 168.37-31.05L168.37-31.05Q168.62-28.15 168.62-27.15L168.62-27.15Q168.62-23.6 169.12-17.45L169.12-17.45Q169.52-11.65 169.52-7.7L169.52-7.7 169.52-5.7 169.52-3.7Q169.52-0.7 168.25 1.63 166.97 3.95 164.67 4.75L164.67 4.75ZM179.87 0.65Q179.22 0.65 178.7 0.2 178.17-0.25 178.12-0.9L178.12-0.9 178.12-2.2 178.12-3.2Q178.07-3.65 178.07-4.25L178.07-4.25Q178.07-5.3 177.92-7.45L177.92-7.45 177.82-10.65Q177.82-13.1 177.97-17.95L177.97-17.95Q178.17-22.3 178.17-25.25L178.17-25.25Q178.17-25.95 178.02-27.35L178.02-27.35Q177.87-28.8 177.87-29.45L177.87-29.45Q177.87-33 179.97-33L179.97-33Q181.62-33 183.8-32.35 185.97-31.7 185.97-30.8L185.97-30.8Q185.97-30.3 185.55-29.88 185.12-29.45 184.52-29.2L184.52-29.2Q182.42-29.95 180.72-30.2L180.72-30.2Q180.77-29.45 180.77-28.05L180.77-28.05Q180.77-26.05 180.72-24.45L180.72-24.45Q180.57-22.05 180.57-20.85L180.57-20.85 180.72-20.05 181.52-20.1Q181.92-20.15 182.52-20.15L182.52-20.15Q184.92-20.15 184.92-18.75L184.92-18.75Q184.92-18.2 184.47-17.82 184.02-17.45 183.32-17.45L183.32-17.45Q182.42-17.45 181.92-17.55L181.92-17.55 180.67-17.55Q180.77-16.25 180.77-13.75L180.77-13.75Q180.77-11.25 180.72-9.25L180.72-9.25Q180.57-6.2 180.57-4.7L180.57-4.7Q180.57-1.9 180.67-1.9L180.67-1.9 182.32-1.95Q183.17-2 184.37-2L184.37-2Q186.27-2 186.27-0.8L186.27-0.8Q186.27-0.1 185.65 0.28 185.02 0.65 184.12 0.65L184.12 0.65 179.87 0.65ZM192.67 0.7Q191.77 0.55 191.14 0.05 190.52-0.45 190.42-1.25L190.42-1.25 190.97-2.1Q191.27-2.1 191.92-1.9L191.92-1.9Q192.67-1.75 193.07-1.75L193.07-1.75Q193.97-1.75 194.69-2.55 195.42-3.35 195.77-4.65L195.77-4.65Q196.42-7.05 196.42-8.95L196.42-8.95Q196.42-12.25 194.32-15.9L194.32-15.9 193.77-16.85Q192.82-18.5 192.17-19.8 191.52-21.1 191.07-22.6L191.07-22.6Q190.47-24.55 190.47-26.5L190.47-26.5Q190.47-28.7 191.47-31.1L191.47-31.1Q191.97-32.25 192.89-32.98 193.82-33.7 194.97-33.7L194.97-33.7Q195.87-33.7 196.64-33.13 197.42-32.55 197.42-31.75L197.42-31.75Q197.42-31.3 197.07-31.05 196.72-30.8 196.22-30.8L196.22-30.8Q195.67-30.8 195.17-31.1L195.17-31.1Q194.07-31.05 193.42-29.15L193.42-29.15Q192.87-27.4 192.87-26.25L192.87-26.25Q192.87-24.8 193.32-23.33 193.77-21.85 194.47-20.65L194.47-20.65 195.57-18.65 197.32-15.35Q198.02-13.95 198.44-12.1 198.87-10.25 198.87-8.35L198.87-8.35Q198.87-5.3 197.47-2.55L197.47-2.55Q196.77-1.15 195.49-0.3 194.22 0.55 192.67 0.55L192.67 0.55 192.67 0.7ZM205.02 0.7Q204.12 0.55 203.49 0.05 202.87-0.45 202.77-1.25L202.77-1.25 203.32-2.1Q203.62-2.1 204.27-1.9L204.27-1.9Q205.02-1.75 205.42-1.75L205.42-1.75Q206.32-1.75 207.04-2.55 207.77-3.35 208.12-4.65L208.12-4.65Q208.77-7.05 208.77-8.95L208.77-8.95Q208.77-12.25 206.67-15.9L206.67-15.9 206.12-16.85Q205.17-18.5 204.52-19.8 203.87-21.1 203.42-22.6L203.42-22.6Q202.82-24.55 202.82-26.5L202.82-26.5Q202.82-28.7 203.82-31.1L203.82-31.1Q204.32-32.25 205.24-32.98 206.17-33.7 207.32-33.7L207.32-33.7Q208.22-33.7 208.99-33.13 209.77-32.55 209.77-31.75L209.77-31.75Q209.77-31.3 209.42-31.05 209.07-30.8 208.57-30.8L208.57-30.8Q208.02-30.8 207.52-31.1L207.52-31.1Q206.42-31.05 205.77-29.15L205.77-29.15Q205.22-27.4 205.22-26.25L205.22-26.25Q205.22-24.8 205.67-23.33 206.12-21.85 206.82-20.65L206.82-20.65 207.92-18.65 209.67-15.35Q210.37-13.95 210.79-12.1 211.22-10.25 211.22-8.35L211.22-8.35Q211.22-5.3 209.82-2.55L209.82-2.55Q209.12-1.15 207.84-0.3 206.57 0.55 205.02 0.55L205.02 0.55 205.02 0.7Z" opacity="1" transform="matrix(1,0,0,1,0,0)" fill="#ffffff" class="undefined-text-0" data-fill-palette-color="primary" id="text-0"></path></svg></g></svg></g></svg></g></svg></g><g transform="matrix(1,0,0,1,150.98117070858603,0)"><svg viewBox="0 0 95.53525858282788 112.30251656541498" height="112.30251656541498" width="95.53525858282788"><g><svg xmlns="http://www.w3.org/2000/svg" xmlnsXlink="http://www.w3.org/1999/xlink" version="1.1" x="8" y="0" viewBox="14.764351844787598 0.24885773658752441 70.46974182128906 99.50215148925781" enable-background="new 0 0 100 100" xmlSpace="preserve" height="112.30251656541498" width="79.53525858282788" class="icon-icon-0" data-fill-palette-color="accent" id="icon-0"><g fill="#ffffff" data-fill-palette-color="accent"><path d="M50 23.597c4.292 0 7.781-3.492 7.781-7.782 0-10.918-6.322-15.05-6.592-15.219-0.684-0.437-1.551-0.463-2.26-0.069-0.71 0.391-1.152 1.135-1.152 1.947l0.008 1.253c0.031 3.552 0.036 4.192-2.379 5.814-0.082 0.059-0.16 0.126-0.236 0.198-1.879 1.491-2.951 3.693-2.951 6.075C42.217 20.105 45.708 23.597 50 23.597zM48.013 13.162c0.042-0.033 0.083-0.065 0.124-0.1 2.234-1.544 3.259-3.051 3.724-4.701 0.816 1.776 1.475 4.212 1.475 7.454 0 1.839-1.496 3.335-3.335 3.335-1.839 0-3.335-1.496-3.335-3.335C46.665 14.77 47.156 13.804 48.013 13.162z" fill="#ffffff" data-fill-palette-color="accent"></path><path d="M84.966 79.423c-0.389-0.719-1.138-1.166-1.953-1.166H66.577V30.083c0-3.065-2.492-5.559-5.559-5.559H38.98c-3.063 0-5.559 2.493-5.559 5.559v48.174H16.989c-0.816 0-1.568 0.447-1.957 1.166-0.388 0.717-0.352 1.59 0.094 2.273l11.117 17.045c0.41 0.629 1.112 1.01 1.863 1.01h43.79c0.75 0 1.45-0.381 1.86-1.01l11.117-17.045C85.319 81.013 85.354 80.14 84.966 79.423zM38.98 28.971h22.039c0.614 0 1.111 0.497 1.111 1.111v11.58h-0.629c-2.8 0-5.079 2.493-5.079 5.559v3.985c0 0.539-0.189 0.893-0.323 1.047-0.134-0.154-0.324-0.508-0.324-1.047v-5.559c0-3.066-2.338-5.559-5.21-5.559-2.874 0-5.211 2.492-5.211 5.649 0 0.646-0.389 1.112-0.649 1.112s-0.648-0.467-0.648-1.112v-3.937c0-3.065-2.385-5.559-5.316-5.559h-0.871v-6.16C37.868 29.468 38.368 28.971 38.98 28.971zM37.868 40.69h0.871c0.463 0 0.87 0.519 0.87 1.111v3.937c0 3.066 2.285 5.56 5.095 5.56s5.096-2.494 5.096-5.651c0-0.636 0.403-1.111 0.765-1.111 0.36 0 0.763 0.476 0.763 1.111v5.559c0 3.064 2.14 5.559 4.771 5.559 2.631 0 4.771-2.494 4.771-5.559v-3.985c0-0.69 0.408-1.111 0.632-1.111h0.629v32.147H37.868V40.69zM70.69 95.304H29.31l-8.218-12.6h14.553 28.709 14.552L70.69 95.304z" fill="#ffffff" data-fill-palette-color="accent"></path></g></svg></g></svg></g><g><rect width="74.44805070858605" height="7.328188741003053" y="103.97432782441193" x="246.5164292914139" fill="#ffffff" data-fill-palette-color="secondary"></rect><rect width="74.44805070858605" height="7.328188741003053" y="103.97432782441193" x="76.53311999999997" fill="#ffffff" data-fill-palette-color="secondary"></rect></g></svg></g><defs></defs></svg><rect width="395.52" height="238.06870790784038" fill="none" stroke="none" visibility="hidden"></rect></g></svg></g></svg>